<svg width="862" height="92" viewBox="0 0 862 92" fill="none" xmlns="http://www.w3.org/2000/svg">
<path d="M8.36 11.624C9.21333 10.344 10.0667 9.70399 10.92 9.70399C12.6267 9.70399 14.0347 12.008 15.144 16.616C15.9973 19.688 16.424 29.416 16.424 45.8C16.424 65.512 15.912 76.1787 14.888 77.8C14.12 78.9947 13.224 79.592 12.2 79.592C11.6027 79.592 11.1333 79.2933 10.792 78.696C10.4507 78.184 10.28 72.04 10.28 60.264V53.352V47.976C10.28 35.0053 10.0667 28.2213 9.64 27.624C9.21333 26.856 8.36 27.4533 7.08 29.416C5.37333 32.0613 3.83733 33.384 2.472 33.384C1.61867 33.384 0.936 32.872 0.424 31.848C0.253334 31.5067 0.168 31.208 0.168 30.952C0.168 29.8427 1.23467 27.112 3.368 22.76C5.84267 17.8107 7.08 15.0373 7.08 14.44C7.08 13.672 7.50667 12.7333 8.36 11.624ZM53.851 11.624C50.6083 9.832 48.7737 8.936 48.347 8.936C46.6403 9.02133 44.6777 10.3867 42.459 13.032C40.2403 15.6773 38.5763 18.6213 37.467 21.864C36.1017 25.96 35.419 31.208 35.419 37.608C35.419 41.5333 35.7603 44.8613 36.443 47.592C38.0643 53.8213 41.0083 59.9653 45.275 66.024C49.5417 71.9973 53.2963 75.2827 56.539 75.88C57.3923 76.0507 58.0323 76.136 58.459 76.136C60.763 76.136 62.4697 75.0267 63.579 72.808C64.7737 70.504 65.7123 66.7067 66.395 61.416C66.907 56.9787 67.163 53.096 67.163 49.768C67.163 45.16 66.523 39.6133 65.243 33.128C63.963 26.8133 62.5123 22.1627 60.891 19.176C59.2697 16.104 56.923 13.5867 53.851 11.624ZM43.099 4.45599C44.8057 3.60266 46.3843 3.17599 47.835 3.17599C49.2857 3.17599 51.2057 3.64533 53.595 4.584C56.4963 5.69333 59.1417 7.44266 61.531 9.83199C64.0057 12.136 65.8403 14.6107 67.035 17.256C71.0457 26.0453 73.051 37.864 73.051 52.712C73.051 62.952 71.899 70.248 69.595 74.6C67.035 79.6347 63.2803 82.152 58.331 82.152C53.723 82.152 49.243 79.9333 44.891 75.496C42.6723 73.192 40.1977 69.864 37.467 65.512C34.8217 61.0747 32.9017 57.2347 31.707 53.992C30.2563 49.9813 29.531 44.2213 29.531 36.712C29.531 27.5813 30.5123 20.968 32.475 16.872C33.6697 14.4827 35.3763 12.008 37.595 9.448C39.8137 6.80266 41.6483 5.13866 43.099 4.45599ZM110.976 11.624C107.733 9.832 105.899 8.936 105.472 8.936C103.765 9.02133 101.803 10.3867 99.584 13.032C97.3653 15.6773 95.7013 18.6213 94.592 21.864C93.2267 25.96 92.544 31.208 92.544 37.608C92.544 41.5333 92.8853 44.8613 93.568 47.592C95.1893 53.8213 98.1333 59.9653 102.4 66.024C106.667 71.9973 110.421 75.2827 113.664 75.88C114.517 76.0507 115.157 76.136 115.584 76.136C117.888 76.136 119.595 75.0267 120.704 72.808C121.899 70.504 122.837 66.7067 123.52 61.416C124.032 56.9787 124.288 53.096 124.288 49.768C124.288 45.16 123.648 39.6133 122.368 33.128C121.088 26.8133 119.637 22.1627 118.016 19.176C116.395 16.104 114.048 13.5867 110.976 11.624ZM100.224 4.45599C101.931 3.60266 103.509 3.17599 104.96 3.17599C106.411 3.17599 108.331 3.64533 110.72 4.584C113.621 5.69333 116.267 7.44266 118.656 9.83199C121.131 12.136 122.965 14.6107 124.16 17.256C128.171 26.0453 130.176 37.864 130.176 52.712C130.176 62.952 129.024 70.248 126.72 74.6C124.16 79.6347 120.405 82.152 115.456 82.152C110.848 82.152 106.368 79.9333 102.016 75.496C99.7973 73.192 97.3227 69.864 94.592 65.512C91.9467 61.0747 90.0267 57.2347 88.832 53.992C87.3813 49.9813 86.656 44.2213 86.656 36.712C86.656 27.5813 87.6373 20.968 89.6 16.872C90.7947 14.4827 92.5013 12.008 94.72 9.448C96.9387 6.80266 98.7733 5.13866 100.224 4.45599ZM197.157 9.19199C196.218 7.31466 195.066 6.376 193.701 6.376C192.506 6.376 190.928 7.22933 188.965 8.936C186.064 11.4107 184.613 13.8427 184.613 16.232C184.613 16.9147 184.741 17.512 184.997 18.024C185.594 19.2187 185.893 21.608 185.893 25.192C185.893 28.9467 186.106 30.952 186.533 31.208L186.661 31.336H186.789C187.557 31.336 188.837 30.184 190.629 27.88C192.421 25.576 194.042 22.9733 195.493 20.072C197.37 16.3173 198.309 13.8853 198.309 12.776C198.309 12.008 197.925 10.8133 197.157 9.19199ZM190.373 0.743996C191.312 0.402662 192.506 0.231995 193.957 0.231995C196.261 0.231995 198.01 0.70133 199.205 1.64C200.144 2.408 201.253 3.90133 202.533 6.12C203.728 8.16799 204.325 10.0027 204.325 11.624C204.325 12.4773 204.282 13.16 204.197 13.672C203.941 16.0613 202.789 19.304 200.741 23.4C198.778 27.496 196.944 30.3973 195.237 32.104C193.53 33.8107 192.677 35.0907 192.677 35.944C192.677 36.8827 196.133 40.5947 203.045 47.08C213.285 56.6373 218.405 62.952 218.405 66.024C218.405 67.2187 217.552 67.816 215.845 67.816C214.565 67.816 212.73 66.3227 210.341 63.336C208.464 60.9467 204.197 56.6373 197.541 50.408C190.97 44.0933 187.344 40.936 186.661 40.936C186.149 40.936 185.893 43.8373 185.893 49.64C185.893 53.8213 185.637 56.7653 185.125 58.472C184.698 60.1787 183.93 61.032 182.821 61.032C182.736 61.032 182.608 61.032 182.437 61.032C182.266 60.9467 182.138 60.904 182.053 60.904C180.858 60.7333 179.92 59.6667 179.237 57.704C178.64 55.7413 178.042 52.1147 177.445 46.824C176.421 36.4987 175.909 29.4587 175.909 25.704C175.909 22.632 176.25 19.9867 176.933 17.768C178.64 12.904 180.517 9.14933 182.565 6.504C184.613 3.85866 187.216 1.93866 190.373 0.743996ZM244.825 38.632C247.044 36.2427 248.153 34.7067 248.153 34.024C248.153 33.3413 247.598 33 246.489 33C244.953 33 243.801 33.4693 243.033 34.408C240.9 36.7973 239.833 39.016 239.833 41.064C239.833 41.832 240.089 42.216 240.601 42.216C241.198 42.216 242.606 41.0213 244.825 38.632ZM239.577 29.672C241.796 27.5387 243.673 26.472 245.209 26.472C245.977 26.472 246.617 26.5147 247.129 26.6C249.518 26.856 251.353 27.5813 252.633 28.776C253.998 29.9707 254.681 31.464 254.681 33.256C254.681 34.536 254.468 35.6453 254.041 36.584C253.529 37.9493 251.78 40.2533 248.793 43.496C245.806 46.6533 243.588 48.616 242.137 49.384C240.857 49.9813 240.217 50.536 240.217 51.048C240.217 51.2187 240.388 51.6453 240.729 52.328C241.412 53.6933 243.289 55.016 246.361 56.296C249.433 57.4907 252.334 58.088 255.065 58.088C258.222 58.088 260.057 58.6 260.569 59.624C261.252 60.648 261.209 61.672 260.441 62.696C259.929 63.464 258.692 63.848 256.729 63.848C255.193 63.848 253.828 63.8053 252.633 63.72C248.964 63.5493 246.02 63.0373 243.801 62.184C241.668 61.2453 239.406 59.6667 237.017 57.448C234.03 54.4613 232.537 51.0053 232.537 47.08C232.537 44.264 233.177 40.8933 234.457 36.968C235.396 34.3227 237.102 31.8907 239.577 29.672ZM298.973 32.872C297.181 32.1893 295.56 31.848 294.109 31.848C290.781 31.848 287.666 33.384 284.765 36.456C282.12 39.3573 280.797 42.8133 280.797 46.824C280.797 49.384 281.437 51.304 282.717 52.584C283.826 53.6933 284.978 54.248 286.173 54.248C287.88 54.248 290.056 53.096 292.701 50.792C295.602 48.5733 297.864 45.4587 299.485 41.448C301.106 37.352 301.917 35.1333 301.917 34.792C301.917 34.3653 300.936 33.7253 298.973 32.872ZM287.709 26.6C289.16 26.088 290.952 25.832 293.085 25.832C297.01 25.832 300.082 26.3867 302.301 27.496C304.69 28.6053 306.312 30.2267 307.165 32.36C308.104 34.408 308.573 37.6507 308.573 42.088C308.573 46.7813 309.085 50.5787 310.109 53.48C310.962 56.2107 312.328 58.728 314.205 61.032C316.168 63.336 318.045 64.7013 319.837 65.128C320.946 65.4693 321.672 65.8533 322.013 66.28C322.354 66.6213 322.525 67.304 322.525 68.328C322.525 69.352 322.397 70.0347 322.141 70.376C321.885 70.632 321.245 70.76 320.221 70.76H319.069C315.997 70.6747 313.096 69.224 310.365 66.408C307.634 63.592 305.501 59.8373 303.965 55.144C303.026 52.4133 302.429 51.048 302.173 51.048C301.917 51.048 300.68 52.072 298.461 54.12C294.28 58.216 290.184 60.264 286.173 60.264C283.954 60.264 281.992 59.7093 280.285 58.6C276.786 56.4667 275.037 52.84 275.037 47.72C275.037 47.464 275.037 47.08 275.037 46.568C275.122 46.056 275.165 45.672 275.165 45.416C275.506 40.9787 276.744 37.096 278.877 33.768C281.096 30.44 284.04 28.0507 287.709 26.6ZM342.806 9.70399C345.11 8.08266 347.499 7.272 349.974 7.272H350.742C357.227 7.272 360.683 8.76533 361.11 11.752V12.52C361.11 13.8853 360.299 14.568 358.678 14.568C357.569 14.568 356.203 14.3973 354.582 14.056C353.217 13.7147 352.022 13.544 350.998 13.544C349.889 13.544 348.694 13.8 347.414 14.312C344.598 15.5067 343.19 16.9573 343.19 18.664C343.19 18.92 343.275 19.2187 343.446 19.56C344.811 21.4373 348.523 22.9307 354.582 24.04C364.993 25.7467 370.539 31.5067 371.222 41.32C371.222 41.6613 371.222 42.088 371.222 42.6C371.307 43.112 371.35 43.496 371.35 43.752C371.35 45.9707 370.966 47.6347 370.198 48.744C369.515 49.8533 368.193 50.8773 366.23 51.816C362.902 53.4373 359.019 54.248 354.582 54.248C348.694 54.248 344.726 52.968 342.678 50.408C341.739 49.0427 341.27 47.7627 341.27 46.568C341.27 45.1173 341.825 43.9653 342.934 43.112C343.361 42.856 343.745 42.728 344.086 42.728C344.598 42.728 345.537 43.4533 346.902 44.904C348.097 46.0987 349.078 46.8667 349.846 47.208C350.614 47.464 352.193 47.592 354.582 47.592C358.081 47.592 360.769 47.208 362.646 46.44C363.926 45.8427 364.737 45.3307 365.078 44.904C365.419 44.392 365.59 43.624 365.59 42.6C365.59 39.784 364.481 37.1813 362.262 34.792C360.043 32.3173 357.441 30.8667 354.454 30.44C342.763 28.5627 336.918 24.8507 336.918 19.304C337.003 17.0853 337.473 15.2933 338.326 13.928C339.179 12.5627 340.673 11.1547 342.806 9.70399ZM406.803 38.504C402.622 33.896 399.251 31.592 396.691 31.592C395.326 31.592 394.046 32.1893 392.851 33.384C391.827 34.408 391.315 35.816 391.315 37.608C391.315 38.7173 391.358 39.6987 391.443 40.552C391.784 46.3547 394.344 50.7067 399.123 53.608C400.83 54.632 402.28 55.144 403.475 55.144C405.096 55.144 406.675 54.376 408.211 52.84C409.832 51.1333 410.643 49.0427 410.643 46.568C410.643 44.9467 410.43 43.7093 410.003 42.856C409.576 41.9173 408.51 40.4667 406.803 38.504ZM388.755 28.904C390.206 27.4533 391.315 26.5573 392.083 26.216C392.851 25.8747 394.131 25.704 395.923 25.704C401.214 25.704 406.504 28.6907 411.795 34.664C415.55 38.76 417.427 42.472 417.427 45.8C417.427 47.848 416.702 50.3227 415.251 53.224C412.52 58.6 408.595 61.288 403.475 61.288C400.744 61.288 397.971 60.392 395.155 58.6C391.998 56.552 389.48 53.8213 387.603 50.408C385.726 46.9093 384.787 43.24 384.787 39.4C384.787 38.2907 384.83 37.4373 384.915 36.84C385.171 34.8773 385.555 33.384 386.067 32.36C386.579 31.336 387.475 30.184 388.755 28.904ZM439.872 25.576C440.981 25.1493 442.048 24.936 443.072 24.936C446.741 24.936 449.6 26.6853 451.648 30.184C453.099 32.6587 454.805 36.4133 456.768 41.448C458.816 46.3973 459.84 49.384 459.84 50.408C459.84 51.0053 459.541 51.4747 458.944 51.816C458.347 52.1573 457.792 52.328 457.28 52.328C456.683 52.328 456.085 52.1147 455.488 51.688C454.464 50.664 452.544 47.1227 449.728 41.064C447.765 36.968 446.4 34.3653 445.632 33.256C444.864 32.1467 444.011 31.592 443.072 31.592C440.085 31.592 438.592 34.3227 438.592 39.784C438.592 40.4667 438.677 41.7467 438.848 43.624C439.019 45.672 439.104 46.952 439.104 47.464C439.104 49.512 438.805 50.92 438.208 51.688C437.696 52.3707 436.757 52.712 435.392 52.712C434.283 52.712 433.557 52.2853 433.216 51.432C432.875 50.5787 432.363 47.9333 431.68 43.496C431.168 40.3387 430.912 38.0347 430.912 36.584C430.912 35.2187 431.168 34.1093 431.68 33.256C432.192 32.4027 433.216 31.2507 434.752 29.8C436.971 27.5813 438.677 26.1733 439.872 25.576ZM479.556 9.70399C481.86 8.08266 484.249 7.272 486.724 7.272H487.492C493.977 7.272 497.433 8.76533 497.86 11.752V12.52C497.86 13.8853 497.049 14.568 495.428 14.568C494.319 14.568 492.953 14.3973 491.332 14.056C489.967 13.7147 488.772 13.544 487.748 13.544C486.639 13.544 485.444 13.8 484.164 14.312C481.348 15.5067 479.94 16.9573 479.94 18.664C479.94 18.92 480.025 19.2187 480.196 19.56C481.561 21.4373 485.273 22.9307 491.332 24.04C501.743 25.7467 507.289 31.5067 507.972 41.32C507.972 41.6613 507.972 42.088 507.972 42.6C508.057 43.112 508.1 43.496 508.1 43.752C508.1 45.9707 507.716 47.6347 506.948 48.744C506.265 49.8533 504.943 50.8773 502.98 51.816C499.652 53.4373 495.769 54.248 491.332 54.248C485.444 54.248 481.476 52.968 479.428 50.408C478.489 49.0427 478.02 47.7627 478.02 46.568C478.02 45.1173 478.575 43.9653 479.684 43.112C480.111 42.856 480.495 42.728 480.836 42.728C481.348 42.728 482.287 43.4533 483.652 44.904C484.847 46.0987 485.828 46.8667 486.596 47.208C487.364 47.464 488.943 47.592 491.332 47.592C494.831 47.592 497.519 47.208 499.396 46.44C500.676 45.8427 501.487 45.3307 501.828 44.904C502.169 44.392 502.34 43.624 502.34 42.6C502.34 39.784 501.231 37.1813 499.012 34.792C496.793 32.3173 494.191 30.8667 491.204 30.44C479.513 28.5627 473.668 24.8507 473.668 19.304C473.753 17.0853 474.223 15.2933 475.076 13.928C475.929 12.5627 477.423 11.1547 479.556 9.70399ZM563.649 8.936C564.076 8.424 564.716 8.168 565.569 8.168C566.678 8.168 567.489 8.46666 568.001 9.064C568.342 9.66133 568.684 12.008 569.025 16.104L569.537 21.992L575.041 21.736H576.833C579.393 21.736 580.972 22.0773 581.569 22.76C582.081 23.3573 582.337 23.9973 582.337 24.68C582.337 26.3867 581.057 27.4533 578.497 27.88C577.985 27.9653 576.961 28.136 575.425 28.392C573.974 28.5627 572.993 28.7333 572.481 28.904L569.537 29.672L568.769 37.608C568.513 40.5947 568.385 42.9413 568.385 44.648C568.385 48.744 569.324 51.048 571.201 51.56C572.054 51.7307 572.78 51.816 573.377 51.816C574.998 51.816 577.942 51.3893 582.209 50.536C582.465 50.4507 582.849 50.408 583.361 50.408C584.897 50.408 585.665 51.048 585.665 52.328C585.665 52.84 585.452 53.5227 585.025 54.376C583.745 56.7653 580.374 57.96 574.913 57.96C568.854 57.96 565.014 56.7227 563.393 54.248C563.052 53.6507 562.71 49.4693 562.369 41.704L561.857 30.44L558.657 29.928C555.414 29.5013 553.793 28.392 553.793 26.6C553.793 24.8933 555.244 24.04 558.145 24.04C560.108 24.04 561.26 23.7413 561.601 23.144C561.942 22.4613 562.284 20.0293 562.625 15.848C562.966 11.8373 563.308 9.53333 563.649 8.936ZM621.678 38.504C617.497 33.896 614.126 31.592 611.566 31.592C610.201 31.592 608.921 32.1893 607.726 33.384C606.702 34.408 606.19 35.816 606.19 37.608C606.19 38.7173 606.233 39.6987 606.318 40.552C606.659 46.3547 609.219 50.7067 613.998 53.608C615.705 54.632 617.155 55.144 618.35 55.144C619.971 55.144 621.55 54.376 623.086 52.84C624.707 51.1333 625.518 49.0427 625.518 46.568C625.518 44.9467 625.305 43.7093 624.878 42.856C624.451 41.9173 623.385 40.4667 621.678 38.504ZM603.63 28.904C605.081 27.4533 606.19 26.5573 606.958 26.216C607.726 25.8747 609.006 25.704 610.798 25.704C616.089 25.704 621.379 28.6907 626.67 34.664C630.425 38.76 632.302 42.472 632.302 45.8C632.302 47.848 631.577 50.3227 630.126 53.224C627.395 58.6 623.47 61.288 618.35 61.288C615.619 61.288 612.846 60.392 610.03 58.6C606.873 56.552 604.355 53.8213 602.478 50.408C600.601 46.9093 599.662 43.24 599.662 39.4C599.662 38.2907 599.705 37.4373 599.79 36.84C600.046 34.8773 600.43 33.384 600.942 32.36C601.454 31.336 602.35 30.184 603.63 28.904ZM683.931 9.70399C686.235 8.08266 688.624 7.272 691.099 7.272H691.867C698.352 7.272 701.808 8.76533 702.235 11.752V12.52C702.235 13.8853 701.424 14.568 699.803 14.568C698.694 14.568 697.328 14.3973 695.707 14.056C694.342 13.7147 693.147 13.544 692.123 13.544C691.014 13.544 689.819 13.8 688.539 14.312C685.723 15.5067 684.315 16.9573 684.315 18.664C684.315 18.92 684.4 19.2187 684.571 19.56C685.936 21.4373 689.648 22.9307 695.707 24.04C706.118 25.7467 711.664 31.5067 712.347 41.32C712.347 41.6613 712.347 42.088 712.347 42.6C712.432 43.112 712.475 43.496 712.475 43.752C712.475 45.9707 712.091 47.6347 711.323 48.744C710.64 49.8533 709.318 50.8773 707.355 51.816C704.027 53.4373 700.144 54.248 695.707 54.248C689.819 54.248 685.851 52.968 683.803 50.408C682.864 49.0427 682.395 47.7627 682.395 46.568C682.395 45.1173 682.95 43.9653 684.059 43.112C684.486 42.856 684.87 42.728 685.211 42.728C685.723 42.728 686.662 43.4533 688.027 44.904C689.222 46.0987 690.203 46.8667 690.971 47.208C691.739 47.464 693.318 47.592 695.707 47.592C699.206 47.592 701.894 47.208 703.771 46.44C705.051 45.8427 705.862 45.3307 706.203 44.904C706.544 44.392 706.715 43.624 706.715 42.6C706.715 39.784 705.606 37.1813 703.387 34.792C701.168 32.3173 698.566 30.8667 695.579 30.44C683.888 28.5627 678.043 24.8507 678.043 19.304C678.128 17.0853 678.598 15.2933 679.451 13.928C680.304 12.5627 681.798 11.1547 683.931 9.70399ZM736.024 8.936C736.451 8.424 737.091 8.168 737.944 8.168C739.053 8.168 739.864 8.46666 740.376 9.064C740.717 9.66133 741.059 12.008 741.4 16.104L741.912 21.992L747.416 21.736H749.208C751.768 21.736 753.347 22.0773 753.944 22.76C754.456 23.3573 754.712 23.9973 754.712 24.68C754.712 26.3867 753.432 27.4533 750.872 27.88C750.36 27.9653 749.336 28.136 747.8 28.392C746.349 28.5627 745.368 28.7333 744.856 28.904L741.912 29.672L741.144 37.608C740.888 40.5947 740.76 42.9413 740.76 44.648C740.76 48.744 741.699 51.048 743.576 51.56C744.429 51.7307 745.155 51.816 745.752 51.816C747.373 51.816 750.317 51.3893 754.584 50.536C754.84 50.4507 755.224 50.408 755.736 50.408C757.272 50.408 758.04 51.048 758.04 52.328C758.04 52.84 757.827 53.5227 757.4 54.376C756.12 56.7653 752.749 57.96 747.288 57.96C741.229 57.96 737.389 56.7227 735.768 54.248C735.427 53.6507 735.085 49.4693 734.744 41.704L734.232 30.44L731.032 29.928C727.789 29.5013 726.168 28.392 726.168 26.6C726.168 24.8933 727.619 24.04 730.52 24.04C732.483 24.04 733.635 23.7413 733.976 23.144C734.317 22.4613 734.659 20.0293 735 15.848C735.341 11.8373 735.683 9.53333 736.024 8.936ZM795.973 32.872C794.181 32.1893 792.56 31.848 791.109 31.848C787.781 31.848 784.666 33.384 781.765 36.456C779.12 39.3573 777.797 42.8133 777.797 46.824C777.797 49.384 778.437 51.304 779.717 52.584C780.826 53.6933 781.978 54.248 783.173 54.248C784.88 54.248 787.056 53.096 789.701 50.792C792.602 48.5733 794.864 45.4587 796.485 41.448C798.106 37.352 798.917 35.1333 798.917 34.792C798.917 34.3653 797.936 33.7253 795.973 32.872ZM784.709 26.6C786.16 26.088 787.952 25.832 790.085 25.832C794.01 25.832 797.082 26.3867 799.301 27.496C801.69 28.6053 803.312 30.2267 804.165 32.36C805.104 34.408 805.573 37.6507 805.573 42.088C805.573 46.7813 806.085 50.5787 807.109 53.48C807.962 56.2107 809.328 58.728 811.205 61.032C813.168 63.336 815.045 64.7013 816.837 65.128C817.946 65.4693 818.672 65.8533 819.013 66.28C819.354 66.6213 819.525 67.304 819.525 68.328C819.525 69.352 819.397 70.0347 819.141 70.376C818.885 70.632 818.245 70.76 817.221 70.76H816.069C812.997 70.6747 810.096 69.224 807.365 66.408C804.634 63.592 802.501 59.8373 800.965 55.144C800.026 52.4133 799.429 51.048 799.173 51.048C798.917 51.048 797.68 52.072 795.461 54.12C791.28 58.216 787.184 60.264 783.173 60.264C780.954 60.264 778.992 59.7093 777.285 58.6C773.786 56.4667 772.037 52.84 772.037 47.72C772.037 47.464 772.037 47.08 772.037 46.568C772.122 46.056 772.165 45.672 772.165 45.416C772.506 40.9787 773.744 37.096 775.877 33.768C778.096 30.44 781.04 28.0507 784.709 26.6ZM835.838 29.672C836.179 28.8187 837.075 28.392 838.526 28.392C839.635 28.392 840.489 28.6907 841.086 29.288C841.769 29.9707 842.11 32.9147 842.11 38.12C842.11 43.8373 842.793 46.696 844.158 46.696C844.67 46.696 845.822 46.184 847.614 45.16C849.235 44.136 850.686 42.5573 851.966 40.424C853.246 38.2053 853.886 36.2 853.886 34.408C853.886 32.7013 854.398 31.208 855.422 29.928C856.531 28.5627 857.598 28.1787 858.622 28.776C860.243 29.8 861.182 41.0213 861.438 62.44V66.024C861.438 73.0213 861.139 77.928 860.542 80.744C860.03 83.4747 858.835 85.8213 856.958 87.784C854.398 90.6 850.857 92.008 846.334 92.008C844.969 92.008 843.817 91.8373 842.878 91.496C840.915 90.8987 838.867 89.5333 836.734 87.4C834.686 85.2667 833.662 83.4747 833.662 82.024C833.662 80.4027 833.79 79.592 834.046 79.592C834.387 79.592 834.857 79.464 835.454 79.208H835.71C836.734 79.208 838.227 80.1893 840.19 82.152C841.641 83.6027 842.75 84.5413 843.518 84.968C844.371 85.3947 845.481 85.608 846.846 85.608C850.259 85.608 852.521 84.4133 853.63 82.024C854.825 79.6347 855.422 74.7707 855.422 67.432V62.696C855.251 53.992 854.995 49.384 854.654 48.872H854.526C853.758 48.872 852.265 49.5547 850.046 50.92C847.486 52.6267 845.097 53.48 842.878 53.48C839.123 53.48 836.862 51.0907 836.094 46.312C835.667 43.1547 835.454 39.528 835.454 35.432C835.454 32.36 835.582 30.44 835.838 29.672Z" fill="#FE4A49"/>
</svg>
