<svg width="53" height="53" viewBox="0 0 53 53" fill="none" xmlns="http://www.w3.org/2000/svg">
<rect x="0.8975" y="0.6475" width="51.455" height="51.455" rx="25.7275" fill="#3CB3FB" fill-opacity="0.1"/>
<rect x="0.8975" y="0.6475" width="51.455" height="51.455" rx="25.7275" stroke="#3CB3FB" stroke-width="0.205"/>
<path fill-rule="evenodd" clip-rule="evenodd" d="M14.5499 24.7068C22.066 21.3199 27.078 19.087 29.5857 18.0082C36.7459 14.9279 38.2337 14.3929 39.2034 14.3752C39.4167 14.3713 39.8936 14.426 40.2025 14.6852C40.4633 14.9041 40.5351 15.1998 40.5694 15.4074C40.6038 15.6149 40.6465 16.0877 40.6126 16.4572C40.2245 20.6738 38.5456 30.9065 37.6915 35.6292C37.3301 37.6275 36.6184 38.2975 35.9295 38.3631C34.4322 38.5056 33.2953 37.3397 31.8451 36.3565C29.5759 34.818 28.294 33.8603 26.0913 32.359C23.5457 30.624 25.1959 29.6704 26.6466 28.112C27.0263 27.7041 33.6232 21.498 33.7509 20.935C33.7669 20.8646 33.7817 20.6021 33.6309 20.4636C33.4802 20.325 33.2577 20.3724 33.0971 20.4101C32.8695 20.4635 29.2444 22.9417 22.2218 27.8447C21.1928 28.5755 20.2608 28.9315 19.4258 28.9129C18.5052 28.8923 16.7344 28.3745 15.418 27.9319C13.8033 27.3891 12.52 27.1021 12.6318 26.1801C12.69 25.6999 13.3293 25.2088 14.5499 24.7068Z" fill="#3CB3FB"/>
</svg>
